<?xml version="1.0" encoding="utf-8"?>
<!-- Generator: Adobe Illustrator 23.0.1, SVG Export Plug-In . SVG Version: 6.00 Build 0)  -->
<svg version="1.1" id="Layer_1" xmlns="http://www.w3.org/2000/svg" xmlns:xlink="http://www.w3.org/1999/xlink" x="0px" y="0px"
	 viewBox="0 0 699 433.3" style="enable-background:new 0 0 699 433.3;" xml:space="preserve">
<style type="text/css">
	.st0{fill:#5F294B;}
	.st1{fill:#EA4A66;}
</style>
<path class="st0" d="M0,173.3L184.9,208L167.5,40.4c40.4,28.9,80.9,57.8,121.3,86.6C310,86.6,331.2,46.2,352.4,5.8
	c19.3,38.5,38.5,77,57.8,115.5c40.4-27,80.9-53.9,121.3-80.9l-17.3,161.8L699,173.3L577.7,415.9l-225.3,17.3l-231.1-17.3L0,173.3z"
	/>
<image style="display:none;overflow:visible;enable-background:new    ;" width="338" height="187" xlink:href="CF029166.png"  transform="matrix(0.5047 0 0 0.5047 281.9687 123.6187)">
</image>
<polygon class="st1" points="242.6,213.7 352.4,0 456.4,213.7 433.3,213.7 352.4,421.7 268.6,216.6 "/>
</svg>
